<mxfile host="app.diagrams.net" agent="Mozilla/5.0 (Windows NT 10.0; Win64; x64; rv:140.0) Gecko/20100101 Firefox/140.0" version="28.2.5">
  <diagram name="Страница — 1" id="Iiv0W9JPlSxOTh7uWDRj">
    <mxGraphModel dx="786" dy="683" grid="1" gridSize="10" guides="1" tooltips="1" connect="1" arrows="1" fold="1" page="1" pageScale="1" pageWidth="827" pageHeight="1169" math="0" shadow="0">
      <root>
        <mxCell id="0" />
        <mxCell id="1" parent="0" />
        <mxCell id="Z9cDC0IIyNsuXC5xZTWu-1" value="ИС Для тренировки памяти" style="rounded=0;whiteSpace=wrap;html=1;" vertex="1" parent="1">
          <mxGeometry x="290" y="390" width="296" height="110" as="geometry" />
        </mxCell>
        <mxCell id="Z9cDC0IIyNsuXC5xZTWu-2" value="" style="endArrow=classic;html=1;rounded=0;" edge="1" parent="1">
          <mxGeometry width="50" height="50" relative="1" as="geometry">
            <mxPoint x="170" y="440" as="sourcePoint" />
            <mxPoint x="290" y="440" as="targetPoint" />
          </mxGeometry>
        </mxCell>
        <mxCell id="Z9cDC0IIyNsuXC5xZTWu-3" value="" style="endArrow=classic;html=1;rounded=0;" edge="1" parent="1">
          <mxGeometry width="50" height="50" relative="1" as="geometry">
            <mxPoint x="170" y="480" as="sourcePoint" />
            <mxPoint x="290" y="480" as="targetPoint" />
          </mxGeometry>
        </mxCell>
        <mxCell id="Z9cDC0IIyNsuXC5xZTWu-4" value="" style="endArrow=classic;html=1;rounded=0;" edge="1" parent="1">
          <mxGeometry width="50" height="50" relative="1" as="geometry">
            <mxPoint x="170" y="400" as="sourcePoint" />
            <mxPoint x="290" y="400" as="targetPoint" />
          </mxGeometry>
        </mxCell>
        <mxCell id="Z9cDC0IIyNsuXC5xZTWu-5" value="" style="endArrow=classic;html=1;rounded=0;" edge="1" parent="1">
          <mxGeometry width="50" height="50" relative="1" as="geometry">
            <mxPoint x="586" y="440" as="sourcePoint" />
            <mxPoint x="706" y="440" as="targetPoint" />
          </mxGeometry>
        </mxCell>
        <mxCell id="Z9cDC0IIyNsuXC5xZTWu-6" value="" style="endArrow=classic;html=1;rounded=0;" edge="1" parent="1">
          <mxGeometry width="50" height="50" relative="1" as="geometry">
            <mxPoint x="360" y="230" as="sourcePoint" />
            <mxPoint x="360" y="390" as="targetPoint" />
          </mxGeometry>
        </mxCell>
        <mxCell id="Z9cDC0IIyNsuXC5xZTWu-7" value="" style="endArrow=classic;html=1;rounded=0;" edge="1" parent="1">
          <mxGeometry width="50" height="50" relative="1" as="geometry">
            <mxPoint x="437.5" y="230" as="sourcePoint" />
            <mxPoint x="437.5" y="390" as="targetPoint" />
          </mxGeometry>
        </mxCell>
        <mxCell id="Z9cDC0IIyNsuXC5xZTWu-8" value="" style="endArrow=classic;html=1;rounded=0;" edge="1" parent="1">
          <mxGeometry width="50" height="50" relative="1" as="geometry">
            <mxPoint x="520" y="230" as="sourcePoint" />
            <mxPoint x="520" y="390" as="targetPoint" />
          </mxGeometry>
        </mxCell>
        <mxCell id="Z9cDC0IIyNsuXC5xZTWu-9" value="" style="endArrow=classic;html=1;rounded=0;" edge="1" parent="1">
          <mxGeometry width="50" height="50" relative="1" as="geometry">
            <mxPoint x="360" y="660" as="sourcePoint" />
            <mxPoint x="360" y="500" as="targetPoint" />
          </mxGeometry>
        </mxCell>
        <mxCell id="Z9cDC0IIyNsuXC5xZTWu-10" value="" style="endArrow=classic;html=1;rounded=0;" edge="1" parent="1">
          <mxGeometry width="50" height="50" relative="1" as="geometry">
            <mxPoint x="437.5" y="660" as="sourcePoint" />
            <mxPoint x="437.5" y="500" as="targetPoint" />
          </mxGeometry>
        </mxCell>
        <mxCell id="Z9cDC0IIyNsuXC5xZTWu-11" value="" style="endArrow=classic;html=1;rounded=0;" edge="1" parent="1">
          <mxGeometry width="50" height="50" relative="1" as="geometry">
            <mxPoint x="520" y="660" as="sourcePoint" />
            <mxPoint x="520" y="500" as="targetPoint" />
          </mxGeometry>
        </mxCell>
        <mxCell id="Z9cDC0IIyNsuXC5xZTWu-12" value="Данные студента" style="text;html=1;align=center;verticalAlign=middle;whiteSpace=wrap;rounded=0;" vertex="1" parent="1">
          <mxGeometry x="170" y="370" width="120" height="30" as="geometry" />
        </mxCell>
        <mxCell id="Z9cDC0IIyNsuXC5xZTWu-13" value="Данные тренировки" style="text;html=1;align=center;verticalAlign=middle;whiteSpace=wrap;rounded=0;" vertex="1" parent="1">
          <mxGeometry x="170" y="410" width="120" height="30" as="geometry" />
        </mxCell>
        <mxCell id="Z9cDC0IIyNsuXC5xZTWu-14" value="Дисциплина" style="text;html=1;align=center;verticalAlign=middle;resizable=0;points=[];autosize=1;strokeColor=none;fillColor=none;" vertex="1" parent="1">
          <mxGeometry x="175" y="448" width="90" height="30" as="geometry" />
        </mxCell>
        <mxCell id="Z9cDC0IIyNsuXC5xZTWu-15" value="Текст вопроса" style="text;html=1;align=center;verticalAlign=middle;resizable=0;points=[];autosize=1;strokeColor=none;fillColor=none;rotation=-90;" vertex="1" parent="1">
          <mxGeometry x="285" y="555" width="100" height="30" as="geometry" />
        </mxCell>
        <mxCell id="Z9cDC0IIyNsuXC5xZTWu-16" value="Текст ответа" style="text;html=1;align=center;verticalAlign=middle;resizable=0;points=[];autosize=1;strokeColor=none;fillColor=none;rotation=-90;" vertex="1" parent="1">
          <mxGeometry x="368.5" y="555" width="90" height="30" as="geometry" />
        </mxCell>
        <mxCell id="Z9cDC0IIyNsuXC5xZTWu-17" value="Уровень сложности" style="text;html=1;align=center;verticalAlign=middle;resizable=0;points=[];autosize=1;strokeColor=none;fillColor=none;rotation=-90;" vertex="1" parent="1">
          <mxGeometry x="430" y="555" width="130" height="30" as="geometry" />
        </mxCell>
        <mxCell id="Z9cDC0IIyNsuXC5xZTWu-18" value="Требования стандартов" style="text;html=1;align=center;verticalAlign=middle;resizable=0;points=[];autosize=1;strokeColor=none;fillColor=none;rotation=-90;" vertex="1" parent="1">
          <mxGeometry x="255" y="280" width="160" height="30" as="geometry" />
        </mxCell>
        <mxCell id="Z9cDC0IIyNsuXC5xZTWu-19" value="Устав образовательной организации" style="text;html=1;align=center;verticalAlign=middle;resizable=0;points=[];autosize=1;strokeColor=none;fillColor=none;rotation=-90;" vertex="1" parent="1">
          <mxGeometry x="290" y="260" width="230" height="30" as="geometry" />
        </mxCell>
        <mxCell id="Z9cDC0IIyNsuXC5xZTWu-20" value="Инструкции по работе" style="text;html=1;align=center;verticalAlign=middle;resizable=0;points=[];autosize=1;strokeColor=none;fillColor=none;rotation=-90;" vertex="1" parent="1">
          <mxGeometry x="420" y="280" width="150" height="30" as="geometry" />
        </mxCell>
        <mxCell id="Z9cDC0IIyNsuXC5xZTWu-21" value="Результаты студента" style="text;html=1;align=center;verticalAlign=middle;whiteSpace=wrap;rounded=0;" vertex="1" parent="1">
          <mxGeometry x="586" y="410" width="120" height="30" as="geometry" />
        </mxCell>
      </root>
    </mxGraphModel>
  </diagram>
</mxfile>
